#!OML:ASF E:\Steps\Project 1\Capture day 1\Session 2\Subject.ASF
:FULLY-SPECIFIED
:DEGREES
315
root 19.574 16.1866 27.664 -155.3 4.55127 175.459
lowerback -24.8762 -1.42582 -8.98089
upperback 0.0949856 1.80085 -3.50113
thorax 14.0489 0.569532 1.81838
lowerneck -7.95539 -1.62753 7.5438
upperneck 23.3937 0.359229 -10.1988
head 8.52103 0.405762 -4.64385
rclavicle 8.15017e-015 2.70347e-014
rhumerus -32.7098 -11.1488 -82.7245
rradius 36.4847
rwrist -7.11747
rhand -7.38752 -53.9695
rfingers 7.12502
rthumb 18.4981 -83.11
lclavicle 8.15017e-015 2.70347e-014
lhumerus -29.5589 7.74288 76.5017
lradius 19.518
lwrist -7.12591
lhand -23.4653 -9.62397
lfingers 7.12502
lthumb 2.99373 20.3348
rfemur -37.2318 -1.76726 16.9898
rtibia 67.3785
rfoot -6.67648 -10.7663
rtoes -37.8066
lfemur -34.5476 -6.30315 -26.3346
ltibia 18.0935
lfoot -7.73424 -0.399275
ltoes -28.4279
316
root 19.5589 16.2011 27.5488 -155.331 4.22411 175.505
lowerback -24.7028 -1.57527 -8.87334
upperback 0.0847994 1.50889 -3.33533
thorax 13.9606 0.434698 1.8417
lowerneck -7.94261 -1.60176 7.47002
upperneck 23.3619 0.405773 -10.2074
head 8.51301 0.419547 -4.62874
rclavicle 1.27222e-014 -1.59028e-015
rhumerus -32.9828 -11.4226 -82.298
rradius 36.4232
rwrist -7.32159
rhand -7.55719 -53.8449
rfingers 7.12502
rthumb 18.3349 -83.0008
lclavicle 1.27222e-014 -1.59028e-015
lhumerus -29.2385 7.56549 76.8365
lradius 20.0624
lwrist -7.04007
lhand -24.6159 -9.62596
lfingers 7.12502
lthumb 1.88253 20.3455
rfemur -38.5832 -1.78829 17.0932
rtibia 67.3151
rfoot -7.29273 -10.655
rtoes -38.3166
lfemur -33.9473 -6.37129 -26.3825
ltibia 17.9237
lfoot -7.9272 -0.59768
ltoes -29.4158
317
root 19.5447 16.2174 27.4288 -155.459 3.94755 175.646
lowerback -24.5004 -1.64417 -8.71756
upperback 0.132177 1.29881 -3.15767
thorax 13.9168 0.331947 1.87937
lowerneck -7.95538 -1.58367 7.41101
upperneck 23.3381 0.43461 -10.2066
head 8.51067 0.426164 -4.61521
rclavicle 1.0138e-014 3.4191e-014
rhumerus -33.2355 -11.8461 -81.8235
rradius 36.3355
rwrist -7.4781
rhand -7.52303 -54.0631
rfingers 7.12502
rthumb 18.3677 -83.2159
lclavicle 1.0138e-014 3.4191e-014
lhumerus -28.8012 7.09509 77.2951
lradius 20.568
lwrist -6.72284
lhand -23.9265 -11.1046
lfingers 7.12502
lthumb 2.54836 18.8599
rfemur -39.7267 -1.60355 17.2364
rtibia 67.0014
rfoot -7.97162 -10.3098
rtoes -38.5022
lfemur -33.242 -6.36892 -26.3261
ltibia 17.7839
lfoot -8.30851 -0.705462
ltoes -30.8052
318
root 19.5287 16.2346 27.3053 -155.601 3.62695 175.787
lowerback -24.3476 -1.68007 -8.51753
upperback 0.193251 1.13336 -3.00833
thorax 13.9148 0.252521 1.8756
lowerneck -7.88618 -1.60638 7.39058
upperneck 23.3238 0.410844 -10.199
head 8.49041 0.416897 -4.60949
rclavicle 6.55989e-015 -9.22361e-014
rhumerus -33.5613 -12.4245 -81.3056
rradius 36.2034
rwrist -7.51045
rhand -7.67764 -54.3503
rfingers 7.12502
rthumb 18.219 -83.5171
lclavicle 6.55989e-015 -9.22361e-014
lhumerus -28.3357 6.40831 77.8046
lradius 21.0649
lwrist -6.40507
lhand -23.8912 -10.4047
lfingers 7.12502
lthumb 2.58248 19.5595
rfemur -40.8056 -1.47451 17.3396
rtibia 66.7383
rfoot -9.05782 -10.0175
rtoes -38.6405
lfemur -32.5129 -6.49149 -26.253
ltibia 17.6673
lfoot -8.72137 -0.7881
ltoes -31.5863
319
root 19.5113 16.2447 27.1843 -155.432 3.25793 175.954
lowerback -24.5226 -1.79099 -8.22312
upperback 0.186716 0.887578 -2.84908
thorax 14.0258 0.146046 1.80294
lowerneck -7.81258 -1.60809 7.38242
upperneck 23.28 0.40882 -10.1972
head 8.46161 0.416449 -4.60532
rclavicle 1.39149e-015 -3.65764e-014
rhumerus -33.8623 -12.8293 -80.874
rradius 36.0615
rwrist -7.57457
rhand -7.43703 -52.8236
rfingers 7.12502
rthumb 18.4505 -81.9686
lclavicle 1.39149e-015 -3.65764e-014
lhumerus -27.8127 5.95148 78.2084
lradius 21.3744
lwrist -6.26486
lhand -23.9197 -10.2902
lfingers 7.12502
lthumb 2.55493 19.6743
rfemur -42.2355 -1.42675 17.4721
rtibia 66.5072
rfoot -10.0549 -10.148
rtoes -39.3068
lfemur -32.154 -6.97594 -26.0089
ltibia 17.5446
lfoot -9.03644 -0.698692
ltoes -31.0055
320
root 19.4941 16.2552 27.0611 -155.449 2.83666 176.152
lowerback -24.5408 -1.92512 -7.90321
upperback 0.25416 0.569763 -2.64587
thorax 14.1403 -9.91025e-005 1.73709
lowerneck -7.78072 -1.56721 7.2999
upperneck 23.2154 0.473324 -10.2025
head 8.44084 0.437543 -4.58487
rclavicle 7.95139e-015 -4.21423e-014
rhumerus -34.1151 -12.9396 -80.5299
rradius 36.001
rwrist -7.71232
rhand -7.01964 -50.8182
rfingers 7.12502
rthumb 18.8519 -79.9246
lclavicle 7.95139e-015 -4.21423e-014
lhumerus -27.179 5.86312 78.5252
lradius 21.4777
lwrist -6.06678
lhand -23.6412 -10.6048
lfingers 7.12502
lthumb 2.8239 19.3563
rfemur -43.3009 -1.3387 17.5939
rtibia 65.8944
rfoot -10.8814 -10.2234
rtoes -39.3952
lfemur -31.5263 -7.44844 -25.7234
ltibia 17.3096
lfoot -9.24729 -0.697134
ltoes -29.4842
